<?xml version="1.0" encoding="UTF-8" standalone="no"?>
<!-- Created with Inkscape (http://www.inkscape.org/) -->

<svg
   width="450"
   height="470"
   viewBox="0 0 119.0625 124.35417"
   version="1.1"
   id="svg1"
   inkscape:version="1.4 (e7c3feb100, 2024-10-09)"
   sodipodi:docname="Viswam-logo.svg"
   xmlns:inkscape="http://www.inkscape.org/namespaces/inkscape"
   xmlns:sodipodi="http://sodipodi.sourceforge.net/DTD/sodipodi-0.dtd"
   xmlns="http://www.w3.org/2000/svg"
   xmlns:svg="http://www.w3.org/2000/svg">
  <sodipodi:namedview
     id="namedview1"
     pagecolor="#ffffff"
     bordercolor="#000000"
     borderopacity="0.25"
     inkscape:showpageshadow="2"
     inkscape:pageopacity="0.0"
     inkscape:pagecheckerboard="0"
     inkscape:deskcolor="#d1d1d1"
     inkscape:document-units="mm"
     inkscape:zoom="0.71713664"
     inkscape:cx="215.44011"
     inkscape:cy="232.17333"
     inkscape:window-width="1920"
     inkscape:window-height="1014"
     inkscape:window-x="0"
     inkscape:window-y="0"
     inkscape:window-maximized="1"
     inkscape:current-layer="layer1" />
  <defs
     id="defs1" />
  <g
     inkscape:label="Layer 1"
     inkscape:groupmode="layer"
     id="layer1">
    <path
       style="fill:#000000;stroke-width:0.264583"
       d="m 17.68593,122.20813 c -1.05576,-1.34218 -1.98575,-4.10341 -2.72291,-8.08461 -0.70716,-3.81915 -0.78481,-9.74805 -0.45737,-34.921535 0.14078,-10.82289 0.2131,-12.00199 0.74238,-12.10392 1.33957,-0.25798 1.505,1.06892 1.48658,11.92407 -0.01,5.72382 -0.084,15.3282 -0.165,21.343055 -0.12692,9.41991 -0.0603,11.40075 0.4804,14.2875 0.71906,3.83897 1.52701,6.22568 2.19419,6.4817 0.78461,0.30109 1.65264,-2.15256 6.66106,-18.82892 2.65141,-8.828265 5.22875,-17.400765 5.72743,-19.049995 1.09326,-3.61561 2.12919,-5.74231 2.70094,-5.5449 0.68565,0.23674 0.43086,1.46888 -1.83958,8.89629 -1.95469,6.39446 -4.38479,14.469885 -8.48074,28.182225 -0.80483,2.69439 -1.77351,5.50689 -2.15262,6.25001 -1.14003,2.23464 -2.94006,2.7387 -4.17476,1.16903 z m 23.092136,-9.87369 c -0.74312,-0.74313 -0.68892,-2.82775 0.1186,-4.56092 0.36161,-0.77611 1.46971,-2.31005 2.46245,-3.40877 1.1491,-1.27176 1.72925,-2.195 1.59657,-2.54076 -0.11462,-0.29871 -0.89714,-1.10747 -1.73893,-1.79725 l -1.53052,-1.254145 -1.34863,1.649475 c -2.44863,2.99488 -4.708086,4.16354 -6.626456,3.42739 -0.31518,-0.12095 -0.90371,-0.86804 -1.30784,-1.66021 -0.63269,-1.24018 -0.71152,-1.88533 -0.56728,-4.642895 0.18526,-3.54193 0.63286,-4.76588 1.74288,-4.76588 0.70163,0 0.72428,0.11068 0.45127,2.20486 -0.41097,3.15243 -0.26703,5.864125 0.36224,6.824515 0.4729,0.72174 0.66923,0.78183 1.51169,0.46265 1.837526,-0.69616 5.377926,-4.735465 5.377926,-6.135775 0,-1.06075 2.26885,-3.08213 3.29459,-2.93523 1.12333,0.16087 1.17471,1.27061 0.0781,1.68753 -0.50157,0.1907 -1.09526,0.74905 -1.31931,1.24079 -0.3796,0.83313 -0.27073,1.02122 1.59777,2.76015 l 2.00513,1.866085 2.55171,-1.908575 c 1.40344,-1.04971 3.06764,-2.15925 3.69823,-2.46563 0.63059,-0.30638 1.14653,-0.67422 1.14653,-0.81742 0,-0.60287 1.88066,-2.43117 2.50081,-2.43117 0.90888,0 0.85353,0.39556 -0.35863,2.56298 -1.20082,2.14713 -2.57993,6.083875 -2.42078,6.910265 0.073,0.37902 0.67684,-0.1666 1.80053,-1.62693 2.13832,-2.778905 2.85652,-3.207855 3.549,-2.119645 0.2799,0.43984 0.68976,1.694765 0.91081,2.788725 0.22568,1.11692 0.70766,2.26572 1.09924,2.6201 0.67121,0.60744 0.73336,0.6043 1.65887,-0.0838 1.45486,-1.08164 2.88783,-4.187905 2.90131,-6.289205 0.0127,-1.97732 0.33499,-2.74043 0.9872,-2.33734 0.2656,0.16416 0.45075,1.11329 0.46892,2.40391 0.0362,2.569945 -0.80604,4.680445 -2.7078,6.785455 -1.14602,1.26852 -1.50324,1.45922 -2.56234,1.36793 -1.55558,-0.13408 -2.41364,-1.237 -3.20146,-4.11502 l -0.58829,-2.149115 -1.66132,2.290745 c -1.95783,2.6996 -3.24844,3.49386 -4.00221,2.46301 -0.6272,-0.85774 -0.62557,-2.79736 0.004,-4.889625 0.27206,-0.90396 0.39112,-1.64032 0.26459,-1.63635 -0.12653,0.004 -1.34131,0.84096 -2.6995,1.85998 l -2.46945,1.852775 -0.0469,2.48426 c -0.0356,1.88823 -0.27181,2.95971 -0.98439,4.46598 -1.62341,3.43161 -4.46068,5.13049 -5.99909,3.59209 z m 2.5737,-1.75334 c 1.1897,-1.00106 2.52462,-4.15385 2.50134,-5.90762 l -0.0151,-1.13329 -1.35568,1.54364 c -1.63152,1.85772 -2.84757,4.19042 -2.84757,5.46236 0,1.16427 0.36594,1.17171 1.71695,0.0349 z m 50.51384,-7.19762 c -0.95558,-0.95558 -1.21341,-2.75337 -0.95629,-6.667765 l 0.22091,-3.36297 -1.36692,1.33476 c -1.62899,1.59066 -2.5378,1.5725 -3.01872,-0.0603 -0.18636,-0.63274 -0.50386,-1.0983 -0.70556,-1.03458 -0.20169,0.0637 -0.82224,0.97862 -1.379,2.03311 -1.91949,3.6355 -2.64448,4.563095 -3.56641,4.563095 -0.50001,0 -1.02185,-0.293945 -1.23765,-0.697165 -0.35794,-0.66882 -0.43846,-0.6473 -1.97971,0.529165 -1.99623,1.52375 -3.63882,1.64158 -4.92699,0.35341 -0.48011,-0.480105 -0.97071,-1.361855 -1.09023,-1.959435 l -0.2173,-1.08651 -1.12001,2.02269 c -1.3092,2.364375 -2.02962,2.951525 -2.92927,2.387405 -1.04676,-0.65636 -0.99112,-3.314595 0.12126,-5.793315 1.66941,-3.71993 4.42837,-5.27388 6.1268,-3.45083 1.32507,1.4223 0.76721,2.20732 -0.82652,1.16307 -0.74904,-0.49079 -0.89525,-0.47151 -1.79567,0.23676 -1.04809,0.82443 -2.65211,3.89438 -2.64382,5.06004 0.003,0.40561 0.61917,-0.39332 1.44969,-1.87928 1.36551,-2.4432 2.161,-3.25877 2.6761,-2.74367 0.1247,0.1247 0.33902,1.17918 0.47628,2.3433 0.44194,3.748095 1.8354,4.193135 4.51509,1.442 1.32456,-1.35987 1.76563,-2.12485 2.10848,-3.65686 0.5347,-2.38928 1.13821,-3.29012 1.98619,-2.96472 0.51097,0.19608 0.58505,0.49782 0.40379,1.64482 -0.12209,0.77258 -0.31282,2.07937 -0.42386,2.90399 l -0.20188,1.49931 1.21233,-1.94028 c 1.73557,-2.77769 3.04217,-4.23333 3.79988,-4.23333 0.7535,0 1.38878,0.99191 1.38878,2.1684 0,0.71449 0.19112,0.61543 1.72222,-0.89264 1.10253,-1.08596 1.95935,-1.64997 2.38125,-1.56749 0.60725,0.1187 0.65903,0.53021 0.65903,5.23736 0,2.80969 0.12843,5.306965 0.2854,5.549505 0.4416,0.6823 1.45797,0.52284 2.24848,-0.35278 0.394118,-0.43657 1.380218,-1.785935 2.191298,-2.998605 1.453456,-2.17309 2.506766,-2.82632 2.506766,-1.55463 0,0.88777 -3.254156,5.456875 -4.537014,6.370355 -1.30013,0.92577 -2.6651,0.94674 -3.5572,0.0546 z m -44.29329,-1.43079 c 0.11992,-0.19403 0.36741,-0.35278 0.54999,-0.35278 0.18257,0 0.33195,0.15875 0.33195,0.35278 0,0.19403 -0.24749,0.35278 -0.54998,0.35278 -0.30249,0 -0.45187,-0.15875 -0.33196,-0.35278 z m 11.58177,-1.9048 -0.35515,-1.552045 1.70683,-0.33748 c 1.96444,-0.38842 2.11966,-0.10209 1.17293,2.163745 -0.3959,0.94752 -0.74528,1.2778 -1.35168,1.2778 -0.67744,0 -0.87872,-0.26633 -1.17293,-1.55202 z M 35.37302,99.249615 c -0.46231,-0.18655 -0.57237,-1.53388 -0.22963,-2.8111 0.19745,-0.73579 0.23835,-0.73996 1.93546,-0.19725 0.953556,0.30494 1.733746,0.6707 1.733746,0.81281 0,0.14211 -0.41099,0.7468 -0.9133,1.34378 -0.866196,1.02942 -1.530736,1.25347 -2.526276,0.85176 z m 66.72563,-0.2662 c -0.292,-0.7609 0.11427,-1.70885 0.65511,-1.52858 0.24241,0.0808 0.44077,0.51735 0.44077,0.97008 0,0.96691 -0.78555,1.36725 -1.09588,0.5585 z m 2.03663,-0.15346 c 0.0647,-0.16529 0.9775,-2.23703 2.02851,-4.60387 1.75297,-3.94771 1.98278,-4.29459 2.78063,-4.1974 0.74748,0.0911 1.13599,0.71747 2.76342,4.45549 1.0415,2.39225 1.89365,4.41631 1.89365,4.49792 0,0.0816 -0.35719,0.14737 -0.79375,0.14615 -0.50062,-0.001 -1.00304,-0.3702 -1.36044,-0.99862 -0.51329,-0.9025 -0.7662,-1.00358 -2.6843,-1.0728 -2.05584,-0.0742 -2.13064,-0.045 -2.56294,0.99862 -0.32578,0.78651 -0.67839,1.07503 -1.31384,1.07503 -0.47768,0 -0.81563,-0.13523 -0.75094,-0.30052 z m 5.78614,-4.45866 c -0.87037,-2.08311 -1.12588,-2.44141 -1.35061,-1.89402 -0.10832,0.26377 -0.45159,1.0749 -0.76285,1.8025 l -0.56594,1.32292 h 1.59697 1.59697 z m 4.7384,0.17307 v -4.58611 h 0.88194 0.88193 v 4.58611 4.58611 h -0.88193 -0.88194 z m -38.100004,1.7859 c 0,-0.20613 0.33537,-0.71016 0.74527,-1.12006 0.54998,-0.54998 0.69905,-1.0353 0.56888,-1.85208 -0.16746,-1.05076 -0.0313,-1.20509 2.68816,-3.0471 10.10594,-6.84516 17.512738,-19.00132 19.452874,-31.92639 2.10447,-14.01977 -2.566024,-28.64805 -12.469314,-39.05471 -9.14591,-9.6107868 -21.01992,-14.7775958 -34.09281,-14.8350048 -5.80288,-0.02548 -9.99967,0.630207 -15.22594,2.378843 C 14.79612,14.713385 1.3194203,39.140595 7.2504403,63.020275 c 1.0529502,4.23943 2.0813902,6.88217 4.4464797,11.42595 1.69669,3.25967 1.74655,3.44086 1.64452,5.97614 l -0.10523,2.61456 -1.87235,-2.71173 c -3.6707695,-5.31637 -6.7048197,-12.63745 -8.0693597,-19.47111 -0.94502,-4.73272 -0.85458,-14.2771 0.18114,-19.11647 2.1864,-10.21583 6.6745497,-18.42608 14.1453797,-25.87639 7.38614,-7.3658498 16.12639,-12.0128618 26.306856,-13.9868148 4.36,-0.845388 14.33424,-0.853526 18.52083,-0.01511 7.25577,1.453056 14.42732,4.508478 20.20254,8.6072428 3.9412,2.797133 9.4894,8.436502 12.18916,12.389452 5.968424,8.73889 8.884904,18.19042 8.881884,28.78388 -0.003,8.24988 -1.40631,14.66197 -4.720986,21.56143 -3.010028,6.26534 -6.445798,11.05533 -10.956108,15.27451 -2.29369,2.14564 -2.31256,2.15482 -4.01395,1.95331 -1.56068,-0.18484 -1.77583,-0.11803 -2.47256,0.76772 -0.41973,0.5336 -0.92164,1.55879 -1.11536,2.27821 -0.28526,1.05937 -0.68788,1.49073 -2.11786,2.26902 -0.97111,0.52854 -1.76565,0.79233 -1.76565,0.58619 z m -52.136226,-2.8782 c -1.18363,-0.79478 -3.04396,-2.26322 -4.13407,-3.26319 l -1.982,-1.81812 0.24662,-2.0257 0.24661,-2.02569 2.35385,2.22049 c 1.29461,1.22128 3.33943,2.91185 4.54404,3.75684 1.81282,1.27162 2.15063,1.66355 1.96053,2.27464 -0.41562,1.33606 -0.8214,2.3258 -0.95354,2.3258 -0.0715,0 -1.09841,-0.65028 -2.28204,-1.44507 z m 11.21401,0.42449 c 0,-0.40135 0.71747,-0.67301 3.351386,-1.26896 3.79995,-0.85979 5.7204,-1.49232 7.54341,-2.48452 3.60534,-1.96227 3.91512,-3.23273 3.91099,-16.03982 -0.004,-11.20598 -0.43139,-15.41573 -1.69492,-16.67926 -0.7289,-0.72889 -0.74259,-0.7293 -1.98634,-0.0595 -0.68882,0.37095 -1.83912,1.19644 -2.55623,1.83442 l -1.30384,1.15996 0.6704,1.1349 c 0.83235,1.40905 0.85156,4.99601 0.0392,7.3178 -0.71386,2.04025 -0.71245,3.83081 0.004,5.2673 0.62864,1.26013 0.31567,1.94259 -0.79295,1.72909 -0.71559,-0.13781 -1.02357,-1.06057 -0.66415,-1.98992 0.12694,-0.32821 0.2817,-1.54925 0.34391,-2.71342 0.0622,-1.16416 0.36634,-2.83104 0.67585,-3.70416 1.04689,-2.95331 0.56612,-4.93336 -1.44823,-5.96447 -1.1598,-0.59369 -2.39145,-0.13383 -3.79119,1.41551 -1.431906,1.58495 -1.513886,2.11951 -0.535696,3.49325 0.496906,0.69785 0.770866,1.81631 0.920626,3.75862 0.2554,3.31227 1.06306,5.8821 2.92156,9.29578 0.15972,0.29337 0.5591,1.4577 0.88751,2.58739 0.63522,2.18508 0.36027,3.22473 -0.74106,2.80211 -0.4216,-0.16178 -0.49725,-0.5499 -0.33622,-1.72475 0.25259,-1.84289 -1.09183,-6.13844 -1.92121,-6.13844 -0.1454,0 -0.63452,0.9662 -1.08692,2.14711 -0.4524,1.18091 -1.100356,2.29775 -1.439906,2.48186 -0.98585,0.53454 -0.76508,-0.68786 0.44739,-2.4772 0.833496,-1.23006 1.051916,-1.9333 1.051916,-3.38694 0,-2.12593 -0.5792,-4.0565 -1.217006,-4.0565 -0.24334,0 -0.95531,1.11269 -1.58215,2.47263 -0.62684,1.35996 -1.45242,2.64 -1.83463,2.84455 -0.59136,0.31649 -0.55003,0.14516 0.27735,-1.14972 1.23948,-1.93982 1.30364,-3.79278 0.173,-4.99629 -1.17935,-1.25536 -1.94757,-1.32793 -3.87732,-0.3663 -2.13661,1.06472 -3.59919,2.64843 -4.81046,5.20884 -0.99989,2.11359 -1.24704,2.29588 -1.95543,1.44232 -0.57647,-0.6946 0.0557,-1.99747 1.28961,-2.65784 0.46706,-0.24996 1.27738,-1.01586 1.80073,-1.702 1.43009,-1.87495 2.10273,-2.46661 3.08428,-2.71296 0.49,-0.12298 0.89091,-0.36515 0.89091,-0.53814 0,-0.17299 0.17743,-0.31453 0.39428,-0.31453 0.61018,0 2.87979,-2.43568 4.27344,-4.58611 0.69159,-1.06716 1.63902,-2.33716 2.10539,-2.82223 2.025716,-2.10694 1.358016,-3.52777 -1.65783,-3.52777 -2.14406,0 -2.38484,0.20811 -4.17975,3.61261 -2.62353,4.97622 -6.03224,7.46522 -11.20925,8.18488 -1.44001,0.20017 -1.65241,0.14351 -1.81667,-0.48463 -0.1751,-0.6696 -0.0664,-0.69881 1.85301,-0.49819 2.64171,0.27611 4.60114,-0.65165 7.56666,-3.58273 2.52999,-2.50059 3.37627,-3.96679 3.37627,-5.84942 0,-1.3705 -0.0119,-1.38252 -1.36803,-1.38252 -1.47227,0 -3.71458,0.79888 -4.52942,1.61371 -0.27662,0.27663 -0.62086,0.50295 -0.76496,0.50295 -0.14411,0 -0.79728,0.71438 -1.45148,1.5875 -1.1459,1.52936 -2.17405,1.99809 -2.65957,1.2125 -0.26428,-0.42761 0.79875,-1.74166 1.40894,-1.74166 0.22215,0 1.35263,-0.69034 2.51217,-1.53408 2.72446,-1.98244 4.20865,-2.44738 8.08707,-2.53339 3.59632,-0.0798 5.400166,-0.67283 6.394316,-2.10235 1.58536,-2.27964 2.45186,-3.03116 3.72889,-3.2341 1.77363,-0.28185 2.73511,0.014 4.14992,1.27719 1.58711,1.41698 2.59177,1.39407 3.30486,-0.0754 0.72907,-1.50235 0.20764,-2.35263 -1.91305,-3.11956 -0.85461,-0.30905 -2.17986,-0.83996 -2.94501,-1.17978 -2.26468,-1.00581 -3.53449,-1.07095 -5.24088,-0.26886 -0.84694,0.39811 -1.92371,1.05164 -2.392806,1.45229 -4.24016,3.62143 -5.70403,4.30747 -9.84832,4.61535 -4.96162,0.36861 -9.8742,2.24463 -11.48112,4.38443 -0.80443,1.07119 -1.41536,1.15355 -1.89593,0.25559 -0.41709,-0.77934 0.1208,-1.46515 1.14914,-1.46515 0.3763,0 1.45819,-0.47625 2.40419,-1.05834 0.94601,-0.58208 1.83669,-1.05931 1.97929,-1.0605 0.14261,-10e-4 0.70881,-0.23663 1.25823,-0.52319 1.20004,-0.6259 6.16029,-1.55342 8.29026,-1.55019 1.59836,0.002 3.23441,-0.79238 3.23441,-1.5713 0,-1.20825 -5.18512,-2.67343 -5.82083,-1.64482 -0.35431,0.57329 -2.5125,0.4052 -4.83256,-0.37637 -2.73635,-0.92181 -5.39434,-1.25868 -5.7239,-0.72545 -0.1347,0.21795 -0.63241,0.39627 -1.10603,0.39627 -0.68335,0 -0.86112,-0.18208 -0.86112,-0.88195 0,-0.74563 0.16431,-0.88194 1.06312,-0.88194 0.58471,0 1.33878,0.1507 1.67569,0.3349 1.69662,0.92755 9.00653,1.72211 9.79827,1.06503 1.41487,-1.17424 -0.39032,-3.86937 -2.59169,-3.86937 -0.91541,0 -1.53606,-0.3516 -2.8151,-1.59477 -1.78796,-1.73781 -3.71108,-2.47631 -5.55011,-2.1313 -1.27629,0.23943 -2.15998,-0.46517 -1.79061,-1.42773 0.16848,-0.43903 0.48946,-0.52304 1.34485,-0.35196 0.61796,0.12359 1.21082,0.36113 1.31748,0.52786 0.10666,0.16673 0.698,0.41247 1.31408,0.54609 0.61608,0.13362 1.99295,0.86794 3.05969,1.63182 1.06675,0.76388 2.04513,1.38887 2.17418,1.38887 0.58823,0 4.66324,2.1151 5.36109,2.78263 0.42845,0.40983 0.86884,0.74515 0.97864,0.74515 0.10981,0 0.97875,-0.53593 1.93098,-1.19095 2.25893,-1.55387 3.73766,-1.81122 6.290846,-1.09483 2.75132,0.77198 5.15363,0.59958 5.29375,-0.37992 0.0587,-0.41026 -0.3087,-1.17049 -0.84563,-1.74985 -0.88946,-0.95975 -1.15265,-1.03332 -4.16801,-1.1652 -2.414776,-0.10562 -3.557916,0.001 -4.577306,0.42693 -0.74729,0.31224 -2.30929,0.56771 -3.47111,0.56771 -2.51848,0 -5.27576,-1.30278 -7.94502,-3.75391 -0.92096,-0.8457 -2.15072,-1.66682 -2.73281,-1.8247 -0.79475,-0.21558 -1.05833,-0.49381 -1.05833,-1.11719 0,-1.26837 0.76115,-1.24823 1.98021,0.0524 3.1477,3.3583 3.83287,3.93789 5.81218,4.91659 1.74337,0.86204 2.5069,1.04163 4.05364,0.95348 2.5148,-0.14332 2.62874,-0.79794 0.48834,-2.80564 -1.76564,-1.65618 -3.73069,-2.76876 -4.90083,-2.77478 -1.0424,-0.005 -7.33908,-6.42781 -7.04733,-7.18809 0.42152,-1.09846 1.24826,-0.55085 2.10994,1.39757 0.4784,1.08175 1.36122,2.41564 1.96183,2.96421 1.44128,1.31641 4.01187,2.61925 4.66981,2.36677 0.69276,-0.26584 1.07316,-2.93795 0.81373,-5.71607 -0.25709,-2.7532 -1.81856,-5.83203 -3.87772,-7.64591 -1.36328,-1.20089 -1.43358,-1.34645 -0.90794,-1.88006 0.52722,-0.53522 0.62596,-0.50692 1.32291,0.37911 0.41425,0.52662 0.75317,1.14428 0.75317,1.37257 0,0.22829 0.30063,0.73775 0.66805,1.13214 1.7159,1.84179 2.73694,4.98962 2.95734,9.11735 0.19341,3.62236 0.74193,4.88219 2.6956,6.19126 1.11846,0.74943 1.66444,0.84778 4.74938,0.85554 3.944406,0.01 4.550956,-0.32832 3.901336,-2.17552 -0.29031,-0.82549 -0.63099,-1.03866 -2.08423,-1.30416 -2.143136,-0.39154 -2.728316,-0.92094 -4.062526,-3.67525 -0.57853,-1.19431 -1.37207,-2.37143 -1.76341,-2.61583 -0.90047,-0.56235 -0.92027,-1.54888 -0.0357,-1.78019 0.85346,-0.22319 1.44086,0.3503 1.44086,1.40673 0,0.45012 0.39688,1.44708 0.88194,2.21548 0.48507,0.7684 0.88195,1.53439 0.88195,1.7022 0,0.65693 1.34735,1.4728 2.432216,1.4728 1.60585,0 2.38428,0.51248 3.08838,2.03324 1.03098,2.2268 4.02549,6.51234 5.91638,8.46715 1.72882,1.78725 1.82647,1.83641 2.58814,1.30291 1.15273,-0.8074 1.08178,-2.74857 -0.14191,-3.88265 -0.5134,-0.4758 -1.06903,-0.86509 -1.23472,-0.86509 -0.1657,0 -0.93627,-0.635 -1.71238,-1.41112 -1.06557,-1.06557 -1.41159,-1.69185 -1.41308,-2.55763 -0.003,-1.95237 -0.68131,-3.72151 -1.88856,-4.92824 -3.35312,-3.35163 -7.248706,-6.94972 -8.340026,-7.70309 -0.67909,-0.4688 -1.47284,-1.04639 -1.76389,-1.28352 -1.82505,-1.48702 -3.30221,-2.57751 -3.49142,-2.57751 -0.12068,0 -0.43025,-0.33761 -0.68795,-0.75025 -0.40026,-0.64093 -0.38361,-0.8337 0.11429,-1.32292 0.53846,-0.52908 0.63479,-0.50928 1.26562,0.26017 0.37554,0.45805 0.6828,1.04789 0.6828,1.31075 0,1.32241 4.66171,4.59611 5.70507,4.0064 0.854656,-0.48306 1.095376,-2.09827 0.60371,-4.05086 -0.32521,-1.29153 -0.89103,-2.16476 -2.34436,-3.61809 -1.72821,-1.72821 -1.8623,-1.96907 -1.37026,-2.46111 0.46978,-0.46978 0.62796,-0.47693 1.1405,-0.0516 0.32729,0.27162 0.90378,1.13111 1.28109,1.90997 1.542096,3.18327 2.808126,5.32358 3.699046,6.2535 l 0.9422,0.98344 h -0.93553 c -1.62659,0 -2.2108,2.08601 -0.98125,3.50369 1.15472,1.33141 1.93455,0.83505 2.13755,-1.36055 0.15558,-1.6826 0.23377,-1.83804 0.66265,-1.31735 0.3577,0.43428 0.42417,1.13912 0.25141,2.66613 -0.25054,2.21443 -0.0758,2.5881 1.77855,3.80311 1.5694,1.02831 1.89351,0.47251 1.89351,-3.24718 0,-1.86045 -0.16934,-4.04825 -0.37632,-4.86177 -0.55762,-2.19177 -2.08489,-4.23139 -3.51907,-4.69962 -1.34029,-0.43758 -1.71078,-1.19461 -0.90991,-1.85927 0.41322,-0.34295 0.6634,-0.30311 1.24985,0.19903 0.40328,0.3453 0.73322,0.80298 0.73322,1.01708 0,0.2141 0.41346,0.77413 0.91879,1.24451 2.02766,1.88742 2.63616,3.91206 2.96074,9.85108 0.38391,7.02475 0.78883,8.88186 2.19442,10.06459 0.69254,0.58273 1.41059,0.87053 2.00101,0.802 0.81093,-0.0941 0.93383,-0.28589 1.02936,-1.60628 0.0814,-1.12574 -0.13682,-1.93581 -0.87585,-3.2505 l -0.98433,-1.75108 0.61127,-2.96961 c 0.8635,-4.19502 0.8052,-4.81422 -0.63032,-6.69426 -0.68287,-0.89433 -1.73292,-2.91274 -2.33344,-4.48535 -1.13216,-2.96481 -3.23626,-5.670121 -4.77086,-6.134042 -1.00414,-0.303558 -1.33756,-1.254324 -0.67295,-1.918933 0.47426,-0.474267 0.60985,-0.442427 1.24768,0.293 0.39358,0.453798 0.71559,0.971005 0.71559,1.149348 0,0.40243 3.18927,3.801117 3.5669,3.801117 0.15125,0 0.32339,-0.75406 0.38253,-1.67569 0.0917,-1.429987 0.22391,-1.692229 0.90127,-1.788429 0.98335,-0.139659 1.06999,0.796069 0.19003,2.052399 -0.43101,0.61535 -0.60762,1.59418 -0.61736,3.42155 -0.0124,2.32752 0.0738,2.64714 0.95111,3.52469 0.94561,0.94591 0.97513,0.95133 1.4876,0.27291 1.37302,-1.81762 1.77117,-3.21031 1.89756,-6.63754 0.0818,-2.218699 -0.0118,-3.615914 -0.25877,-3.862918 -0.21284,-0.212835 -0.38698,-0.831472 -0.38698,-1.37475 0,-0.8301798 0.14728,-0.9877768 0.92307,-0.9877768 0.83646,0 0.89805,0.09103 0.65635,0.9701378 -0.14669,0.533577 -0.33294,2.557639 -0.41388,4.497917 -0.15968,3.82762 0.15875,5.08032 1.79351,7.05556 l 0.8759,1.05833 0.76569,-0.75268 c 1.05763,-1.03967 1.38522,-4.84014 0.55983,-6.49468 -0.7942,-1.59201 -0.75397,-2.806808 0.093,-2.806808 0.74861,0 1.25918,1.401358 0.91066,2.499448 -0.11792,0.37155 -0.0846,0.67409 0.074,0.6723 0.6528,-0.007 3.62813,-3.064945 3.83398,-3.939972 0.26478,-1.125546 1.15409,-1.562416 1.82163,-0.894871 0.60965,0.609648 0.25297,1.567252 -0.69593,1.868421 -1.65113,0.524048 -4.09062,3.906612 -5.24843,7.277392 -0.41914,1.22027 -0.87719,2.29805 -1.01788,2.39506 -0.74455,0.51343 -2.10918,3.05352 -2.10918,3.926 0,0.55293 0.31742,1.84046 0.70537,2.86119 0.93174,2.45142 0.89853,2.95216 -0.37645,5.67672 -1.86203,3.97907 -0.87679,6.01374 1.96808,4.06439 1.56208,-1.07034 1.85718,-2.32708 2.43399,-10.36546 l 0.46176,-6.43489 1.72515,-2.598 c 2.37358,-3.5745 3.34256,-4.24328 3.60132,-2.48559 0.0813,0.55224 -0.16073,0.88533 -0.8771,1.20709 -1.15665,0.51951 -1.79758,1.11825 -2.74776,2.56687 -0.56991,0.86887 -0.71584,1.8422 -0.83634,5.5784 -0.1562,4.84311 0.0298,5.52944 1.31244,4.843 1.36915,-0.73275 1.95286,-2.073 1.86556,-4.28351 -0.08,-2.02612 -0.0612,-2.06885 1.6463,-3.74383 0.94998,-0.93188 1.84941,-2.0912 1.99873,-2.57627 0.14932,-0.48507 0.88405,-1.82632 1.63272,-2.98056 0.74867,-1.15424 1.36123,-2.28574 1.36123,-2.51444 0,-0.22871 0.25022,-0.6235 0.55605,-0.87731 0.46083,-0.38246 0.61094,-0.37475 0.87654,0.045 0.57754,0.91271 0.34801,1.64868 -0.64208,2.05879 -1.93931,0.80329 -3.74896,5.43301 -2.94397,7.53172 0.52238,1.36193 1.36759,1.23182 3.84491,-0.59188 1.51146,-1.11267 2.18879,-1.86678 2.35454,-2.62146 0.28102,-1.27948 0.9536,-1.90368 1.73013,-1.6057 1.1141,0.42752 0.67756,1.3317 -1.34725,2.79056 -0.5386,0.38806 -1.16012,0.87228 -1.38116,1.07604 -0.22103,0.20377 -1.28376,1.01936 -2.36162,1.81244 -1.07786,0.79307 -3.8163,3.26946 -6.08542,5.50309 -3.21839,3.16804 -4.13749,4.28227 -4.17941,5.06672 -0.0296,0.55308 -0.0906,1.16435 -0.13569,1.35838 -0.0451,0.19403 -0.10028,0.76938 -0.12266,1.27857 -0.0402,0.91431 -2.05435,3.48393 -2.73083,3.48393 -0.19084,0 -0.95135,0.55358 -1.69003,1.23018 -1.14163,1.04569 -1.30643,1.37606 -1.09891,2.20289 0.29214,1.16396 0.82055,1.85859 1.41383,1.85859 0.48394,0 4.79838,-4.18289 5.78793,-5.61145 0.34857,-0.50322 1.01294,-1.84475 1.47639,-2.98118 1.00552,-2.46568 2.06535,-3.40181 3.85133,-3.40181 1.1917,0 1.4105,-0.16038 2.40809,-1.76516 0.60351,-0.97084 1.289,-2.43928 1.52331,-3.26319 0.54584,-1.91933 0.84649,-2.25148 1.52686,-1.68683 0.77502,0.64321 0.67755,1.24516 -0.3846,2.37548 -0.5108,0.54357 -1.16056,1.54394 -1.44393,2.22303 -0.8558,2.05098 -2.15343,3.175 -3.66538,3.175 -1.73641,0 -2.49648,0.78134 -2.35913,2.42513 l 0.10688,1.27904 h 3.70416 c 3.2237,0 3.84188,-0.0982 4.76581,-0.75732 1.79808,-1.28268 2.6971,-3.41917 2.87289,-6.8274 0.14503,-2.81158 1.04706,-6.70278 1.5538,-6.70278 0.12482,0 0.75094,-1.03235 1.39137,-2.2941 1.38954,-2.73761 1.90452,-3.25958 2.62553,-2.66119 0.69181,0.57415 0.12468,1.73779 -1.29751,2.66224 -0.597,0.38805 -1.562,1.55608 -2.14445,2.59562 -0.92112,1.64396 -1.08052,2.33671 -1.22419,5.32028 -0.1716,3.5638 0.16275,4.96048 1.1875,4.96048 1.47992,0 6.14425,-3.96282 6.14425,-5.22016 0,-1.042 0.86706,-2.21567 1.56329,-2.11612 0.96384,0.13781 1.20063,1.602 0.31354,1.93873 -0.35316,0.13406 -1.75335,1.40047 -3.11155,2.81424 -2.12447,2.21141 -2.78977,2.67637 -4.7625,3.32839 -1.7806,0.58852 -2.67816,1.15483 -4.01629,2.53402 -1.63568,1.68586 -1.68946,1.80147 -1.05834,2.2751 1.01371,0.76074 3.94803,0.3874 6.2973,-0.80122 1.93028,-0.97663 4.04381,-2.76076 5.7627,-4.86457 0.91276,-1.11715 1.60193,-1.09444 1.77138,0.0584 0.087,0.592 -0.16127,0.88902 -1.05833,1.26603 -1.06867,0.44912 -4.09903,2.46326 -4.52342,3.00651 -0.097,0.12418 -1.04951,0.76074 -2.11666,1.41457 -2.44038,1.49519 -5.13185,1.84467 -6.61037,0.85833 -0.75251,-0.50201 -1.83521,-0.68131 -4.75522,-0.78752 l -3.78087,-0.13753 -1.06983,1.06983 c -0.63771,0.63771 -1.06983,1.43702 -1.06983,1.97891 0,0.84077 0.11801,0.90908 1.57029,0.90908 0.86366,0 2.49085,-0.24211 3.61598,-0.53803 2.56001,-0.67332 4.79991,-0.23443 6.48595,1.27086 1.43955,1.28524 1.71213,1.28364 2.9585,-0.0173 0.60841,-0.63505 1.92093,-1.3519 3.3292,-1.81831 2.15022,-0.71212 3.83782,-1.54804 4.26508,-2.11262 0.097,-0.12819 1.22145,-0.80655 2.49875,-1.50745 3.14189,-1.7241 4.59843,-1.66167 4.01641,0.17214 -0.17829,0.56172 -0.41201,0.67777 -0.99291,0.49303 -2.01766,-0.64168 -2.5305,-0.57611 -3.93475,0.50307 -0.77611,0.59645 -2.00079,1.53967 -2.72151,2.09603 -0.83367,0.64356 -1.93586,1.09455 -3.02963,1.23964 -1.35902,0.18028 -1.82073,0.41771 -2.20364,1.13318 -0.41515,0.7757 -0.40914,1.03986 0.042,1.84752 0.72546,1.2987 2.00338,1.34987 6.44789,0.25818 2.02262,-0.49679 4.33059,-0.90327 5.12882,-0.90327 1.31289,0 1.45132,0.0841 1.45132,0.88194 0,0.68511 -0.18109,0.88195 -0.81139,0.88195 -0.44626,0 -0.98812,-0.17674 -1.20413,-0.39275 -0.45958,-0.45957 -2.21792,-0.26922 -5.21642,0.56472 -3.56366,0.99113 -3.70752,0.99982 -5.64517,0.34119 l -1.8801,-0.63906 -1.70542,0.87581 c -3.11099,1.59763 -2.13484,3.13064 1.99345,3.13064 3.04878,0 8.5878,1.44607 9.53029,2.48807 0.59844,0.66162 2.87636,1.74527 3.66869,1.74527 1.14109,0 1.57805,0.90167 0.80943,1.67029 -0.50781,0.50781 -0.6717,0.44279 -1.8474,-0.73291 -0.70959,-0.70959 -1.49918,-1.29016 -1.75465,-1.29016 -0.25547,0 -0.51741,-0.13476 -0.58208,-0.29947 -0.0647,-0.16471 -1.22885,-0.74805 -2.58704,-1.29632 -1.91231,-0.77195 -3.30515,-1.04957 -6.17361,-1.23054 -3.3747,-0.21291 -5.67412,-0.84279 -6.35,-1.73946 -0.097,-0.1287 -0.81139,-0.70187 -1.5875,-1.27369 -1.35137,-0.99567 -1.63503,-1.21721 -2.77387,-2.16639 -0.89244,-0.74382 -3.09808,-1.51913 -4.32166,-1.51913 -1.35776,0 -5.91788,1.89046 -7.10378,2.94496 -0.98171,0.87295 -0.99235,1.29352 -0.0626,2.47552 0.94882,1.20623 1.69129,1.17298 3.16377,-0.14165 1.41481,-1.26313 2.37629,-1.55904 4.14992,-1.27719 1.2776,0.20303 1.80855,0.66568 3.88144,3.38217 0.94989,1.24481 3.02638,1.92723 4.83297,1.58831 1.75721,-0.32965 5.77364,0.74934 7.82969,2.10341 0.95144,0.6266 2.42632,1.41792 3.27749,1.7585 1.80941,0.72398 2.59517,1.58608 2.04731,2.24622 -0.56367,0.67918 -0.8491,0.55817 -2.49389,-1.05733 -1.74878,-1.71764 -5.61831,-3.80481 -7.04022,-3.79739 -2.34106,0.0122 -1.19157,3.65043 2.25888,7.14954 2.92297,2.9642 5.66238,3.94575 9.46426,3.39109 0.68792,-0.10035 0.88194,0.0255 0.88194,0.57207 0,0.9765 -0.9124,1.05997 -3.84247,0.35152 -3.42882,-0.82904 -5.0238,-1.69871 -7.09364,-3.86787 -2.30843,-2.41921 -2.46841,-2.64086 -3.03306,-4.20238 -0.26363,-0.72904 -0.89382,-1.78979 -1.40043,-2.35724 -0.77226,-0.86498 -1.19056,-1.0317 -2.58853,-1.0317 -2.25623,0 -3.15761,0.51041 -2.87685,1.62904 0.17435,0.69469 2.57864,4.36446 4.11386,6.27919 0.16848,0.21012 0.7197,0.89798 1.22494,1.52857 0.50525,0.63059 1.18233,1.14712 1.50463,1.14785 1.32331,0.003 4.3038,2.42265 5.51981,4.48119 0.32372,0.54801 1.14206,1.3592 1.81854,1.80265 1.33122,0.87263 1.49974,2.00512 0.29837,2.00512 -0.49527,0 -0.9435,-0.51716 -1.52877,-1.76389 -1.14081,-2.43012 -5.25236,-6.17361 -6.78059,-6.17361 -0.14756,0 -0.83754,0.55282 -1.5333,1.22849 -1.99091,1.93344 -1.68492,3.24956 2.21598,9.53123 1.8768,3.02223 1.96801,3.26591 1.45417,3.88506 -0.63334,0.76312 -1.06908,0.22917 -1.44201,-1.76702 -0.1693,-0.90619 -0.81311,-2.38847 -1.4307,-3.29395 -1.46067,-2.14154 -3.11063,-5.37181 -3.11631,-6.10103 -0.006,-0.78021 -0.99679,-1.57324 -1.42742,-1.1426 -0.52439,0.52438 -0.98893,3.58568 -0.78022,5.14167 0.14074,1.04935 0.55569,1.76223 1.6223,2.78712 1.25552,1.20642 1.36942,1.44087 0.91883,1.89132 -0.74477,0.74454 -1.23121,0.27683 -2.37417,-2.28278 l -1.01597,-2.27522 -1.00724,1.71872 c -1.03095,1.75917 -1.21316,3.03668 -0.72018,5.04925 0.22414,0.91504 0.16074,1.18667 -0.32002,1.37116 -0.93927,0.36042 -1.71275,-0.63019 -1.29722,-1.66138 0.18858,-0.46798 0.59968,-1.69255 0.91356,-2.72125 0.31388,-1.02871 0.9385,-2.69558 1.38805,-3.70417 0.99073,-2.22272 1.53073,-4.36453 1.75205,-6.94907 0.10071,-1.17608 0.52561,-2.5794 1.07882,-3.56299 l 0.91268,-1.62271 -0.79895,-1.19951 c -0.97653,-1.46611 -3.11521,-2.5911 -4.34098,-2.28345 -1.33377,0.33475 -2.34659,2.19362 -2.12831,3.90616 0.0989,0.77611 0.2673,2.12549 0.37418,2.99861 l 0.19432,1.5875 -0.56866,-1.23472 c -0.70227,-1.52485 -0.76284,-4.65826 -0.1335,-6.90608 l 0.47339,-1.69076 -1.73977,-1.53501 c -2.01537,-1.77818 -3.04158,-1.86113 -4.17432,-0.33742 -0.72214,0.97139 -0.74044,1.33326 -0.74044,14.64028 v 13.64427 l 0.88184,1.72688 c 1.28661,2.51951 4.0963,4.08527 8.29038,4.62001 2.8816,0.3674 3.70417,0.57016 3.70417,0.91308 0,0.18338 -2.30357,0.32475 -5.29167,0.32475 -4.94145,0 -5.29167,-0.0438 -5.29167,-0.66236 0,-1.87286 -2.81603,-2.09585 -4.37956,-0.34678 -0.98701,1.10414 -1.15272,1.15613 -4.13975,1.29894 -2.7974,0.13374 -3.13534,0.0821 -3.34698,-0.51149 -0.86809,-2.43485 -3.78939,-2.51741 -5.9163,-0.16721 -0.54775,0.60527 -1.08289,0.74168 -2.90958,0.74168 -1.231106,0 -2.238376,-0.14177 -2.238376,-0.31503 z m 1.08153,-23.68627 c 0.960316,-0.51395 0.938106,-2.82179 -0.0357,-3.70303 -0.69939,-0.63294 -0.73779,-0.62999 -1.48126,0.11347 -1.23469,1.23469 -0.86252,3.92289 0.54677,3.94935 0.15827,0.003 0.59483,-0.15894 0.97014,-0.35979 z m 35.124956,-0.53863 c 0.552,-0.84245 0.55258,-0.98692 0.009,-2.12754 -0.68884,-1.4445 -1.42522,-1.82287 -2.14562,-1.10247 -0.86893,0.86893 -1.04699,2.2823 -0.41002,3.25445 0.7414,1.13152 1.7962,1.1214 2.54698,-0.0245 z m -28.19752,-12.07258 c 1.7706,-1.87738 1.34724,-3.69322 -0.70892,-3.04062 -0.70912,0.22506 -2.71394,2.19095 -2.71394,2.66123 0,0.13492 -0.0885,0.47594 -0.19668,0.75784 -0.10817,0.28189 0.0616,0.77081 0.37728,1.08648 0.71088,0.71089 1.54611,0.33351 3.24226,-1.46493 z m 23.03547,0.74087 c 0,-1.60666 -2.89553,-4.24046 -4.20496,-3.82487 -1.60081,0.50808 -1.10542,1.85054 1.4635,3.96589 1.17765,0.96973 1.47704,1.07277 2.0597,0.70889 0.37497,-0.23417 0.68176,-0.61663 0.68176,-0.84991 z M 35.83429,49.653385 c 2.191266,-1.67438 2.507066,-2.30372 1.60742,-3.20337 -1.01451,-1.01451 -2.91185,-0.90412 -4.43556,0.25807 -1.73833,1.32589 -1.93352,2.27035 -0.677,3.27582 1.33474,1.06805 1.72272,1.03146 3.50514,-0.33052 z m 39.005096,-0.34578 c 1.18596,-2.21599 -4.01731,-4.74853 -6.02435,-2.93219 -0.92337,0.83564 -0.91483,0.90632 0.26997,2.23338 1.95004,2.18419 4.77578,2.52734 5.75438,0.69881 z m -20.70342,-14.78942 c 1.25749,-0.57295 1.53695,-2.37506 0.73442,-4.73605 -0.49546,-1.45762 -0.57366,-2.39086 -0.37659,-4.49392 0.2712,-2.89407 -0.0822,-4.12163 -1.18653,-4.12163 -1.26106,0 -1.51263,0.83119 -1.25363,4.14197 0.21751,2.78044 0.16289,3.27195 -0.50125,4.51109 -1.00655,1.87801 -0.93836,2.84987 0.28585,4.07408 1.18116,1.18116 1.11524,1.16324 2.29773,0.62446 z m 13.53385,-6.3666 c 0.44827,-0.44826 0.56841,-2.31589 0.2092,-3.25198 -0.12436,-0.32407 -0.62618,-0.55802 -1.19698,-0.55802 -1.06511,0 -1.41111,0.519 -1.41111,2.11667 0,0.55034 0.0964,1.25174 0.21413,1.55865 0.25237,0.65766 1.57994,0.7395 2.18476,0.13468 z M 33.87751,88.375335 c -0.53249,-0.64162 -0.18905,-2.24869 0.54037,-2.5286 1.20576,-0.4627 2.12897,1.65004 1.14916,2.62985 -0.56887,0.56887 -1.16292,0.53328 -1.68953,-0.10125 z m -4.23532,-5.03167 c 0.001,-0.33955 0.41001,-1.25236 0.90893,-2.02847 0.49893,-0.77611 0.82694,-1.14982 0.72892,-0.83047 -0.098,0.31935 -0.37343,1.23217 -0.61201,2.02847 -0.44158,1.47387 -1.02912,1.94951 -1.02584,0.83047 z m 32.589766,-8.00367 c -0.11748,-0.30615 0.042,-0.9467 0.35435,-1.42344 0.31238,-0.47675 0.58663,-1.62646 0.60945,-2.55492 l 0.0415,-1.68811 0.35212,1.76389 c 0.19366,0.97014 0.37343,2.31952 0.39948,2.99861 0.0395,1.02996 -0.0845,1.25345 -0.74797,1.34766 -0.47839,0.0679 -0.88044,-0.10887 -1.00892,-0.44369 z"
       id="path3" />
  </g>
</svg>
